<?xml version="1.0" encoding="utf-8" standalone="no"?>
<!DOCTYPE svg PUBLIC "-//W3C//DTD SVG 1.1//EN"
  "http://www.w3.org/Graphics/SVG/1.1/DTD/svg11.dtd">
<!-- Created with matplotlib (https://matplotlib.org/) -->
<svg height="432pt" version="1.1" viewBox="0 0 720 432" width="720pt" xmlns="http://www.w3.org/2000/svg" xmlns:xlink="http://www.w3.org/1999/xlink">
 <metadata>
  <rdf:RDF xmlns:cc="http://creativecommons.org/ns#" xmlns:dc="http://purl.org/dc/elements/1.1/" xmlns:rdf="http://www.w3.org/1999/02/22-rdf-syntax-ns#">
   <cc:Work>
    <dc:type rdf:resource="http://purl.org/dc/dcmitype/StillImage"/>
    <dc:date>2021-03-05T02:14:53.008708</dc:date>
    <dc:format>image/svg+xml</dc:format>
    <dc:creator>
     <cc:Agent>
      <dc:title>Matplotlib v3.3.4, https://matplotlib.org/</dc:title>
     </cc:Agent>
    </dc:creator>
   </cc:Work>
  </rdf:RDF>
 </metadata>
 <defs>
  <style type="text/css">*{stroke-linecap:butt;stroke-linejoin:round;}</style>
 </defs>
 <g id="figure_1">
  <g id="patch_1">
   <path d="M 0 432 
L 720 432 
L 720 0 
L 0 0 
z
" style="fill:none;"/>
  </g>
  <g id="axes_1">
   <g id="patch_2">
    <path d="M 90 378 
L 648 378 
L 648 51.84 
L 90 51.84 
z
" style="fill:#ffffff;"/>
   </g>
   <g id="matplotlib.axis_1">
    <g id="xtick_1">
     <g id="line2d_1">
      <path clip-path="url(#pb03abaaff3)" d="M 90 378 
L 90 51.84 
" style="fill:none;stroke:#b0b0b0;stroke-linecap:square;stroke-width:0.8;"/>
     </g>
     <g id="line2d_2">
      <defs>
       <path d="M 0 0 
L 0 3.5 
" id="me35b1b2376" style="stroke:#000000;stroke-width:0.8;"/>
      </defs>
      <g>
       <use style="stroke:#000000;stroke-width:0.8;" x="90" xlink:href="#me35b1b2376" y="378"/>
      </g>
     </g>
     <g id="text_1">
      <!-- 0 -->
      <g transform="translate(86.4 393.52)scale(0.12 -0.12)">
       <defs>
        <path d="M 30 -0.796875 
Q 17.90625 -0.796875 11.59375 8.390625 
Q 5.296875 17.59375 5.296875 35.203125 
Q 5.296875 52.90625 11.59375 62.09375 
Q 17.90625 71.296875 30 71.296875 
Q 42.09375 71.296875 48.390625 62.140625 
Q 54.703125 53 54.703125 35.296875 
Q 54.703125 17.59375 48.390625 8.390625 
Q 42.09375 -0.796875 30 -0.796875 
z
M 30 6.09375 
Q 38.40625 6.09375 42.40625 13.1875 
Q 46.40625 20.296875 46.40625 35.296875 
Q 46.40625 50.40625 42.453125 57.40625 
Q 38.5 64.40625 30 64.40625 
Q 21.59375 64.40625 17.59375 57.34375 
Q 13.59375 50.296875 13.59375 35.296875 
Q 13.59375 20.296875 17.59375 13.1875 
Q 21.59375 6.09375 30 6.09375 
z
" id="Nunito-Regular-48"/>
       </defs>
       <use xlink:href="#Nunito-Regular-48"/>
      </g>
     </g>
    </g>
    <g id="xtick_2">
     <g id="line2d_3">
      <path clip-path="url(#pb03abaaff3)" d="M 146.080402 378 
L 146.080402 51.84 
" style="fill:none;stroke:#b0b0b0;stroke-linecap:square;stroke-width:0.8;"/>
     </g>
     <g id="line2d_4">
      <g>
       <use style="stroke:#000000;stroke-width:0.8;" x="146.080402" xlink:href="#me35b1b2376" y="378"/>
      </g>
     </g>
     <g id="text_2">
      <!-- 2 -->
      <g transform="translate(142.480402 393.52)scale(0.12 -0.12)">
       <defs>
        <path d="M 50.796875 6.90625 
Q 52.59375 6.90625 53.59375 6 
Q 54.59375 5.09375 54.59375 3.5 
Q 54.59375 0 50.796875 0 
L 11.59375 0 
Q 9.90625 0 8.796875 1.046875 
Q 7.703125 2.09375 7.703125 3.59375 
Q 7.703125 5.5 9.09375 6.90625 
L 33.203125 33.40625 
Q 38.203125 39 40.453125 43.453125 
Q 42.703125 47.90625 42.703125 52.40625 
Q 42.703125 58.203125 39.34375 61.296875 
Q 36 64.40625 29.90625 64.40625 
Q 25.09375 64.40625 20.6875 62.65625 
Q 16.296875 60.90625 11.90625 57.296875 
Q 10.40625 56.09375 9.09375 56.09375 
Q 8 56.09375 7.203125 57.140625 
Q 6.40625 58.203125 6.40625 59.703125 
Q 6.40625 61.796875 8 63.09375 
Q 12.09375 66.90625 18 69.09375 
Q 23.90625 71.296875 30.09375 71.296875 
Q 39.59375 71.296875 45.25 66.296875 
Q 50.90625 61.296875 50.90625 52.796875 
Q 50.90625 46.703125 48.15625 41.09375 
Q 45.40625 35.5 39.09375 28.59375 
L 19.09375 6.90625 
L 50.796875 6.90625 
z
" id="Nunito-Regular-50"/>
       </defs>
       <use xlink:href="#Nunito-Regular-50"/>
      </g>
     </g>
    </g>
    <g id="xtick_3">
     <g id="line2d_5">
      <path clip-path="url(#pb03abaaff3)" d="M 202.160804 378 
L 202.160804 51.84 
" style="fill:none;stroke:#b0b0b0;stroke-linecap:square;stroke-width:0.8;"/>
     </g>
     <g id="line2d_6">
      <g>
       <use style="stroke:#000000;stroke-width:0.8;" x="202.160804" xlink:href="#me35b1b2376" y="378"/>
      </g>
     </g>
     <g id="text_3">
      <!-- 4 -->
      <g transform="translate(198.560804 393.52)scale(0.12 -0.12)">
       <defs>
        <path d="M 53.296875 22.09375 
Q 55.09375 22.09375 56.09375 21.140625 
Q 57.09375 20.203125 57.09375 18.703125 
Q 57.09375 15.296875 53.296875 15.296875 
L 45.796875 15.296875 
L 45.796875 3.703125 
Q 45.796875 1.703125 44.640625 0.59375 
Q 43.5 -0.5 41.703125 -0.5 
Q 39.90625 -0.5 38.796875 0.59375 
Q 37.703125 1.703125 37.703125 3.703125 
L 37.703125 15.296875 
L 8.09375 15.296875 
Q 6.296875 15.296875 5.296875 16.296875 
Q 4.296875 17.296875 4.296875 18.796875 
Q 4.296875 20.203125 5.40625 21.90625 
L 38.09375 69.203125 
Q 39.5 71 41.703125 71 
Q 43.40625 71 44.59375 69.890625 
Q 45.796875 68.796875 45.796875 66.796875 
L 45.796875 22.09375 
L 53.296875 22.09375 
z
M 13.59375 22.09375 
L 37.703125 22.09375 
L 37.703125 56.796875 
z
" id="Nunito-Regular-52"/>
       </defs>
       <use xlink:href="#Nunito-Regular-52"/>
      </g>
     </g>
    </g>
    <g id="xtick_4">
     <g id="line2d_7">
      <path clip-path="url(#pb03abaaff3)" d="M 258.241206 378 
L 258.241206 51.84 
" style="fill:none;stroke:#b0b0b0;stroke-linecap:square;stroke-width:0.8;"/>
     </g>
     <g id="line2d_8">
      <g>
       <use style="stroke:#000000;stroke-width:0.8;" x="258.241206" xlink:href="#me35b1b2376" y="378"/>
      </g>
     </g>
     <g id="text_4">
      <!-- 6 -->
      <g transform="translate(254.646831 393.52)scale(0.12 -0.12)">
       <defs>
        <path d="M 32.90625 44.296875 
Q 39.296875 44.296875 44.296875 41.5 
Q 49.296875 38.703125 52.09375 33.59375 
Q 54.90625 28.5 54.90625 21.90625 
Q 54.90625 15.40625 52 10.203125 
Q 49.09375 5 43.890625 2.09375 
Q 38.703125 -0.796875 32.203125 -0.796875 
Q 19.40625 -0.796875 12.453125 8.09375 
Q 5.5 17 5.5 33.5 
Q 5.5 45.296875 8.703125 53.796875 
Q 11.90625 62.296875 18 66.796875 
Q 24.09375 71.296875 32.5 71.296875 
Q 38.203125 71.296875 43.84375 69.09375 
Q 49.5 66.90625 53.5 63.09375 
Q 55.203125 61.5 55.203125 59.703125 
Q 55.203125 58.203125 54.390625 57.203125 
Q 53.59375 56.203125 52.5 56.203125 
Q 51.09375 56.203125 49.59375 57.296875 
Q 40.90625 64.40625 32.703125 64.40625 
Q 23.796875 64.40625 18.796875 56.296875 
Q 13.796875 48.203125 13.796875 33.59375 
L 13.796875 32.296875 
Q 16.09375 37.90625 21.25 41.09375 
Q 26.40625 44.296875 32.90625 44.296875 
z
M 31.796875 6.09375 
Q 38.59375 6.09375 42.6875 10.390625 
Q 46.796875 14.703125 46.796875 21.796875 
Q 46.796875 28.90625 42.640625 33.15625 
Q 38.5 37.40625 31.703125 37.40625 
Q 24.796875 37.40625 20.4375 33.046875 
Q 16.09375 28.703125 16.09375 21.796875 
Q 16.09375 14.796875 20.4375 10.4375 
Q 24.796875 6.09375 31.796875 6.09375 
z
" id="Nunito-Regular-54"/>
       </defs>
       <use xlink:href="#Nunito-Regular-54"/>
      </g>
     </g>
    </g>
    <g id="xtick_5">
     <g id="line2d_9">
      <path clip-path="url(#pb03abaaff3)" d="M 314.321608 378 
L 314.321608 51.84 
" style="fill:none;stroke:#b0b0b0;stroke-linecap:square;stroke-width:0.8;"/>
     </g>
     <g id="line2d_10">
      <g>
       <use style="stroke:#000000;stroke-width:0.8;" x="314.321608" xlink:href="#me35b1b2376" y="378"/>
      </g>
     </g>
     <g id="text_5">
      <!-- 8 -->
      <g transform="translate(310.721608 393.52)scale(0.12 -0.12)">
       <defs>
        <path d="M 42.203125 36.203125 
Q 48.40625 34.296875 51.84375 29.6875 
Q 55.296875 25.09375 55.296875 18.703125 
Q 55.296875 9.59375 48.6875 4.4375 
Q 42.09375 -0.703125 30 -0.703125 
Q 17.90625 -0.703125 11.296875 4.4375 
Q 4.703125 9.59375 4.703125 18.703125 
Q 4.703125 25.203125 8.203125 29.796875 
Q 11.703125 34.40625 17.90625 36.203125 
Q 12.59375 38.203125 9.5 42.5 
Q 6.40625 46.796875 6.40625 52.59375 
Q 6.40625 61.203125 12.65625 66.25 
Q 18.90625 71.296875 30 71.296875 
Q 41.09375 71.296875 47.34375 66.25 
Q 53.59375 61.203125 53.59375 52.59375 
Q 53.59375 46.796875 50.5 42.4375 
Q 47.40625 38.09375 42.203125 36.203125 
z
M 14.5 52 
Q 14.5 45.796875 18.453125 42.5 
Q 22.40625 39.203125 30 39.203125 
Q 37.59375 39.203125 41.546875 42.5 
Q 45.5 45.796875 45.5 52 
Q 45.5 57.90625 41.546875 61.203125 
Q 37.59375 64.5 30 64.5 
Q 22.40625 64.5 18.453125 61.203125 
Q 14.5 57.90625 14.5 52 
z
M 30 6.09375 
Q 47.203125 6.09375 47.203125 19.203125 
Q 47.203125 32.296875 30 32.296875 
Q 12.796875 32.296875 12.796875 19.203125 
Q 12.796875 6.09375 30 6.09375 
z
" id="Nunito-Regular-56"/>
       </defs>
       <use xlink:href="#Nunito-Regular-56"/>
      </g>
     </g>
    </g>
    <g id="xtick_6">
     <g id="line2d_11">
      <path clip-path="url(#pb03abaaff3)" d="M 370.40201 378 
L 370.40201 51.84 
" style="fill:none;stroke:#b0b0b0;stroke-linecap:square;stroke-width:0.8;"/>
     </g>
     <g id="line2d_12">
      <g>
       <use style="stroke:#000000;stroke-width:0.8;" x="370.40201" xlink:href="#me35b1b2376" y="378"/>
      </g>
     </g>
     <g id="text_6">
      <!-- 10 -->
      <g transform="translate(363.20201 393.52)scale(0.12 -0.12)">
       <defs>
        <path d="M 49.203125 6.90625 
Q 51 6.90625 52 6 
Q 53 5.09375 53 3.5 
Q 53 1.796875 52.046875 0.890625 
Q 51.09375 0 49.203125 0 
L 16.09375 0 
Q 14.203125 0 13.25 0.890625 
Q 12.296875 1.796875 12.296875 3.5 
Q 12.296875 5.09375 13.296875 6 
Q 14.296875 6.90625 16.09375 6.90625 
L 28.5 6.90625 
L 28.5 60.5 
L 17.59375 53.40625 
Q 16.796875 52.90625 16 52.90625 
Q 14.59375 52.90625 13.546875 54.203125 
Q 12.5 55.5 12.5 57 
Q 12.5 59.09375 14.09375 60 
L 29.296875 69.90625 
Q 31 71 32.796875 71 
Q 34.5 71 35.59375 69.890625 
Q 36.703125 68.796875 36.703125 66.796875 
L 36.703125 6.90625 
L 49.203125 6.90625 
z
" id="Nunito-Regular-49"/>
       </defs>
       <use xlink:href="#Nunito-Regular-49"/>
       <use x="59.999985" xlink:href="#Nunito-Regular-48"/>
      </g>
     </g>
    </g>
    <g id="xtick_7">
     <g id="line2d_13">
      <path clip-path="url(#pb03abaaff3)" d="M 426.482412 378 
L 426.482412 51.84 
" style="fill:none;stroke:#b0b0b0;stroke-linecap:square;stroke-width:0.8;"/>
     </g>
     <g id="line2d_14">
      <g>
       <use style="stroke:#000000;stroke-width:0.8;" x="426.482412" xlink:href="#me35b1b2376" y="378"/>
      </g>
     </g>
     <g id="text_7">
      <!-- 12 -->
      <g transform="translate(419.282412 393.52)scale(0.12 -0.12)">
       <use xlink:href="#Nunito-Regular-49"/>
       <use x="59.999985" xlink:href="#Nunito-Regular-50"/>
      </g>
     </g>
    </g>
    <g id="xtick_8">
     <g id="line2d_15">
      <path clip-path="url(#pb03abaaff3)" d="M 482.562814 378 
L 482.562814 51.84 
" style="fill:none;stroke:#b0b0b0;stroke-linecap:square;stroke-width:0.8;"/>
     </g>
     <g id="line2d_16">
      <g>
       <use style="stroke:#000000;stroke-width:0.8;" x="482.562814" xlink:href="#me35b1b2376" y="378"/>
      </g>
     </g>
     <g id="text_8">
      <!-- 14 -->
      <g transform="translate(475.362814 393.52)scale(0.12 -0.12)">
       <use xlink:href="#Nunito-Regular-49"/>
       <use x="59.999985" xlink:href="#Nunito-Regular-52"/>
      </g>
     </g>
    </g>
    <g id="xtick_9">
     <g id="line2d_17">
      <path clip-path="url(#pb03abaaff3)" d="M 538.643216 378 
L 538.643216 51.84 
" style="fill:none;stroke:#b0b0b0;stroke-linecap:square;stroke-width:0.8;"/>
     </g>
     <g id="line2d_18">
      <g>
       <use style="stroke:#000000;stroke-width:0.8;" x="538.643216" xlink:href="#me35b1b2376" y="378"/>
      </g>
     </g>
     <g id="text_9">
      <!-- 16 -->
      <g transform="translate(531.448841 393.52)scale(0.12 -0.12)">
       <use xlink:href="#Nunito-Regular-49"/>
       <use x="59.999985" xlink:href="#Nunito-Regular-54"/>
      </g>
     </g>
    </g>
    <g id="xtick_10">
     <g id="line2d_19">
      <path clip-path="url(#pb03abaaff3)" d="M 594.723618 378 
L 594.723618 51.84 
" style="fill:none;stroke:#b0b0b0;stroke-linecap:square;stroke-width:0.8;"/>
     </g>
     <g id="line2d_20">
      <g>
       <use style="stroke:#000000;stroke-width:0.8;" x="594.723618" xlink:href="#me35b1b2376" y="378"/>
      </g>
     </g>
     <g id="text_10">
      <!-- 18 -->
      <g transform="translate(587.523618 393.52)scale(0.12 -0.12)">
       <use xlink:href="#Nunito-Regular-49"/>
       <use x="59.999985" xlink:href="#Nunito-Regular-56"/>
      </g>
     </g>
    </g>
    <g id="text_11">
     <!-- Clusters -->
     <g transform="translate(347.1 408.26)scale(0.12 -0.12)">
      <defs>
       <path d="M 38.59375 -0.796875 
Q 28.59375 -0.796875 21.296875 3.546875 
Q 14 7.90625 10.046875 16.046875 
Q 6.09375 24.203125 6.09375 35.296875 
Q 6.09375 46.296875 10.046875 54.4375 
Q 14 62.59375 21.296875 66.9375 
Q 28.59375 71.296875 38.59375 71.296875 
Q 45.296875 71.296875 51.25 69.140625 
Q 57.203125 67 61.59375 63 
Q 63.203125 61.5 63.203125 59.5 
Q 63.203125 58.09375 62.390625 57.046875 
Q 61.59375 56 60.5 56 
Q 59.296875 56 57.59375 57.09375 
Q 52.5 61.09375 48.34375 62.6875 
Q 44.203125 64.296875 38.796875 64.296875 
Q 27.203125 64.296875 20.953125 56.75 
Q 14.703125 49.203125 14.703125 35.296875 
Q 14.703125 21.296875 20.953125 13.75 
Q 27.203125 6.203125 38.796875 6.203125 
Q 44.09375 6.203125 48.296875 7.796875 
Q 52.5 9.40625 57.59375 13.40625 
Q 59.296875 14.5 60.5 14.5 
Q 61.59375 14.5 62.390625 13.5 
Q 63.203125 12.5 63.203125 11 
Q 63.203125 9 61.59375 7.5 
Q 57.203125 3.5 51.25 1.34375 
Q 45.296875 -0.796875 38.59375 -0.796875 
z
" id="Nunito-Regular-67"/>
       <path d="M 11.59375 -0.5 
Q 9.796875 -0.5 8.640625 0.546875 
Q 7.5 1.59375 7.5 3.5 
L 7.5 67 
Q 7.5 68.90625 8.640625 69.953125 
Q 9.796875 71 11.59375 71 
Q 13.296875 71 14.4375 69.953125 
Q 15.59375 68.90625 15.59375 67 
L 15.59375 3.5 
Q 15.59375 1.59375 14.4375 0.546875 
Q 13.296875 -0.5 11.59375 -0.5 
z
" id="Nunito-Regular-108"/>
       <path d="M 44.5 49.703125 
Q 46.40625 49.703125 47.453125 48.59375 
Q 48.5 47.5 48.5 45.703125 
L 48.5 3.40625 
Q 48.5 1.703125 47.453125 0.59375 
Q 46.40625 -0.5 44.5 -0.5 
Q 42.703125 -0.5 41.640625 0.546875 
Q 40.59375 1.59375 40.59375 3.296875 
L 40.59375 8.296875 
Q 38.296875 3.90625 34.140625 1.59375 
Q 30 -0.703125 24.796875 -0.703125 
Q 16.09375 -0.703125 11.6875 4.140625 
Q 7.296875 9 7.296875 18.5 
L 7.296875 45.703125 
Q 7.296875 47.5 8.390625 48.59375 
Q 9.5 49.703125 11.40625 49.703125 
Q 13.296875 49.703125 14.34375 48.59375 
Q 15.40625 47.5 15.40625 45.703125 
L 15.40625 18.703125 
Q 15.40625 12.203125 18 9.140625 
Q 20.59375 6.09375 26.203125 6.09375 
Q 32.59375 6.09375 36.5 10.25 
Q 40.40625 14.40625 40.40625 21.203125 
L 40.40625 45.703125 
Q 40.40625 47.5 41.5 48.59375 
Q 42.59375 49.703125 44.5 49.703125 
z
" id="Nunito-Regular-117"/>
       <path d="M 23.90625 -0.703125 
Q 19.296875 -0.703125 15.140625 0.390625 
Q 11 1.5 7.796875 3.5 
Q 6 4.703125 5.25 5.75 
Q 4.5 6.796875 4.5 8.296875 
Q 4.5 9.59375 5.25 10.4375 
Q 6 11.296875 7.203125 11.296875 
Q 8.40625 11.296875 10.703125 9.796875 
Q 13.703125 8 16.640625 6.953125 
Q 19.59375 5.90625 24 5.90625 
Q 29.40625 5.90625 32.40625 7.796875 
Q 35.40625 9.703125 35.40625 13.296875 
Q 35.40625 15.5 34.296875 16.84375 
Q 33.203125 18.203125 30.5 19.25 
Q 27.796875 20.296875 22.59375 21.40625 
Q 13.796875 23.296875 10 26.5 
Q 6.203125 29.703125 6.203125 35.203125 
Q 6.203125 39.5 8.59375 42.796875 
Q 11 46.09375 15.25 48 
Q 19.5 49.90625 24.90625 49.90625 
Q 28.796875 49.90625 32.4375 48.84375 
Q 36.09375 47.796875 38.90625 45.90625 
Q 42.296875 43.5 42.296875 40.90625 
Q 42.296875 39.59375 41.5 38.6875 
Q 40.703125 37.796875 39.59375 37.796875 
Q 38.40625 37.796875 36 39.5 
Q 33.203125 41.296875 30.703125 42.296875 
Q 28.203125 43.296875 24.5 43.296875 
Q 19.796875 43.296875 16.9375 41.1875 
Q 14.09375 39.09375 14.09375 35.59375 
Q 14.09375 33.40625 15.140625 32.046875 
Q 16.203125 30.703125 18.640625 29.640625 
Q 21.09375 28.59375 25.703125 27.59375 
Q 32.5 26.09375 36.25 24.296875 
Q 40 22.5 41.59375 19.890625 
Q 43.203125 17.296875 43.203125 13.296875 
Q 43.203125 7 37.890625 3.140625 
Q 32.59375 -0.703125 23.90625 -0.703125 
z
" id="Nunito-Regular-115"/>
       <path d="M 30 5.90625 
Q 33.5 5.59375 33.5 2.703125 
Q 33.5 1 32.25 0.140625 
Q 31 -0.703125 28.5 -0.5 
L 25.796875 -0.296875 
Q 17.796875 0.296875 14 4.5 
Q 10.203125 8.703125 10.203125 17.203125 
L 10.203125 42.296875 
L 3.5 42.296875 
Q 1.796875 42.296875 0.84375 43.140625 
Q -0.09375 44 -0.09375 45.40625 
Q -0.09375 46.90625 0.84375 47.796875 
Q 1.796875 48.703125 3.5 48.703125 
L 10.203125 48.703125 
L 10.203125 60 
Q 10.203125 61.90625 11.296875 62.953125 
Q 12.40625 64 14.296875 64 
Q 16.09375 64 17.1875 62.953125 
Q 18.296875 61.90625 18.296875 60 
L 18.296875 48.703125 
L 29.40625 48.703125 
Q 31 48.703125 31.953125 47.796875 
Q 32.90625 46.90625 32.90625 45.40625 
Q 32.90625 44 31.953125 43.140625 
Q 31 42.296875 29.40625 42.296875 
L 18.296875 42.296875 
L 18.296875 16.796875 
Q 18.296875 11.296875 20.546875 8.84375 
Q 22.796875 6.40625 27.296875 6.09375 
L 30 5.90625 
z
" id="Nunito-Regular-116"/>
       <path d="M 45.203125 11.296875 
Q 46.296875 11.296875 47.09375 10.390625 
Q 47.90625 9.5 47.90625 8.09375 
Q 47.90625 5.59375 44.40625 3.5 
Q 40.796875 1.40625 36.796875 0.34375 
Q 32.796875 -0.703125 29 -0.703125 
Q 17.703125 -0.703125 11.140625 6 
Q 4.59375 12.703125 4.59375 24.5 
Q 4.59375 32 7.5 37.75 
Q 10.40625 43.5 15.65625 46.703125 
Q 20.90625 49.90625 27.59375 49.90625 
Q 37.09375 49.90625 42.6875 43.703125 
Q 48.296875 37.5 48.296875 26.90625 
Q 48.296875 24.90625 47.5 24 
Q 46.703125 23.09375 44.90625 23.09375 
L 12.703125 23.09375 
Q 13.59375 5.90625 29 5.90625 
Q 32.90625 5.90625 35.703125 6.953125 
Q 38.5 8 41.703125 9.796875 
Q 44.296875 11.296875 45.203125 11.296875 
z
M 27.703125 43.59375 
Q 21.296875 43.59375 17.4375 39.59375 
Q 13.59375 35.59375 12.90625 28.296875 
L 41.203125 28.296875 
Q 41 35.703125 37.5 39.640625 
Q 34 43.59375 27.703125 43.59375 
z
" id="Nunito-Regular-101"/>
       <path d="M 31.59375 49.703125 
Q 35.796875 50 35.796875 46.296875 
Q 35.796875 44.703125 34.890625 43.75 
Q 34 42.796875 31.796875 42.59375 
L 28.796875 42.296875 
Q 22.09375 41.703125 18.84375 37.546875 
Q 15.59375 33.40625 15.59375 27.796875 
L 15.59375 3.5 
Q 15.59375 1.5 14.5 0.5 
Q 13.40625 -0.5 11.59375 -0.5 
Q 9.796875 -0.5 8.640625 0.546875 
Q 7.5 1.59375 7.5 3.5 
L 7.5 45.703125 
Q 7.5 47.59375 8.703125 48.640625 
Q 9.90625 49.703125 11.59375 49.703125 
Q 13.203125 49.703125 14.296875 48.640625 
Q 15.40625 47.59375 15.40625 45.796875 
L 15.40625 40.203125 
Q 17.5 44.59375 21.34375 46.890625 
Q 25.203125 49.203125 30.203125 49.59375 
L 31.59375 49.703125 
z
" id="Nunito-Regular-114"/>
      </defs>
      <use xlink:href="#Nunito-Regular-67"/>
      <use x="67.699982" xlink:href="#Nunito-Regular-108"/>
      <use x="90.899979" xlink:href="#Nunito-Regular-117"/>
      <use x="146.999969" xlink:href="#Nunito-Regular-115"/>
      <use x="194.999954" xlink:href="#Nunito-Regular-116"/>
      <use x="228.999939" xlink:href="#Nunito-Regular-101"/>
      <use x="281.699936" xlink:href="#Nunito-Regular-114"/>
      <use x="316.999924" xlink:href="#Nunito-Regular-115"/>
     </g>
    </g>
   </g>
   <g id="matplotlib.axis_2">
    <g id="ytick_1">
     <g id="line2d_21">
      <path clip-path="url(#pb03abaaff3)" d="M 90 368.970938 
L 648 368.970938 
" style="fill:none;stroke:#b0b0b0;stroke-linecap:square;stroke-width:0.8;"/>
     </g>
     <g id="line2d_22">
      <defs>
       <path d="M 0 0 
L -3.5 0 
" id="mb3663b55d9" style="stroke:#000000;stroke-width:0.8;"/>
      </defs>
      <g>
       <use style="stroke:#000000;stroke-width:0.8;" x="90" xlink:href="#mb3663b55d9" y="368.970938"/>
      </g>
     </g>
     <g id="text_12">
      <!-- 300 -->
      <g transform="translate(61.4 373.230938)scale(0.12 -0.12)">
       <defs>
        <path d="M 39.40625 36.203125 
Q 45.796875 34.40625 49.140625 30 
Q 52.5 25.59375 52.5 19.09375 
Q 52.5 9.90625 46.296875 4.59375 
Q 40.09375 -0.703125 29.40625 -0.703125 
Q 22.90625 -0.703125 16.953125 1.5 
Q 11 3.703125 6.90625 7.5 
Q 5.296875 9 5.296875 10.90625 
Q 5.296875 12.40625 6.09375 13.40625 
Q 6.90625 14.40625 8 14.40625 
Q 9.40625 14.40625 10.796875 13.296875 
Q 15.40625 9.59375 19.796875 7.890625 
Q 24.203125 6.203125 29.296875 6.203125 
Q 36.703125 6.203125 40.546875 9.59375 
Q 44.40625 13 44.40625 19.40625 
Q 44.40625 32.296875 28.203125 32.296875 
L 22.90625 32.296875 
Q 21.296875 32.296875 20.34375 33.34375 
Q 19.40625 34.40625 19.40625 35.796875 
Q 19.40625 37.203125 20.34375 38.203125 
Q 21.296875 39.203125 22.90625 39.203125 
L 26.59375 39.203125 
Q 34.40625 39.203125 38.59375 42.640625 
Q 42.796875 46.09375 42.796875 52.59375 
Q 42.796875 58.296875 39.390625 61.34375 
Q 36 64.40625 29.796875 64.40625 
Q 25.09375 64.40625 20.6875 62.65625 
Q 16.296875 60.90625 11.90625 57.296875 
Q 10.5 56.203125 9.09375 56.203125 
Q 8 56.203125 7.203125 57.203125 
Q 6.40625 58.203125 6.40625 59.703125 
Q 6.40625 61.59375 8 63.09375 
Q 12.09375 66.90625 17.9375 69.09375 
Q 23.796875 71.296875 30 71.296875 
Q 39.59375 71.296875 45.25 66.4375 
Q 50.90625 61.59375 50.90625 53.40625 
Q 50.90625 47.296875 47.84375 42.75 
Q 44.796875 38.203125 39.40625 36.203125 
z
" id="Nunito-Regular-51"/>
       </defs>
       <use xlink:href="#Nunito-Regular-51"/>
       <use x="59.999985" xlink:href="#Nunito-Regular-48"/>
       <use x="119.999969" xlink:href="#Nunito-Regular-48"/>
      </g>
     </g>
    </g>
    <g id="ytick_2">
     <g id="line2d_23">
      <path clip-path="url(#pb03abaaff3)" d="M 90 331.49634 
L 648 331.49634 
" style="fill:none;stroke:#b0b0b0;stroke-linecap:square;stroke-width:0.8;"/>
     </g>
     <g id="line2d_24">
      <g>
       <use style="stroke:#000000;stroke-width:0.8;" x="90" xlink:href="#mb3663b55d9" y="331.49634"/>
      </g>
     </g>
     <g id="text_13">
      <!-- 400 -->
      <g transform="translate(61.4 335.75634)scale(0.12 -0.12)">
       <use xlink:href="#Nunito-Regular-52"/>
       <use x="59.999985" xlink:href="#Nunito-Regular-48"/>
       <use x="119.999969" xlink:href="#Nunito-Regular-48"/>
      </g>
     </g>
    </g>
    <g id="ytick_3">
     <g id="line2d_25">
      <path clip-path="url(#pb03abaaff3)" d="M 90 294.021741 
L 648 294.021741 
" style="fill:none;stroke:#b0b0b0;stroke-linecap:square;stroke-width:0.8;"/>
     </g>
     <g id="line2d_26">
      <g>
       <use style="stroke:#000000;stroke-width:0.8;" x="90" xlink:href="#mb3663b55d9" y="294.021741"/>
      </g>
     </g>
     <g id="text_14">
      <!-- 500 -->
      <g transform="translate(61.4 298.281741)scale(0.12 -0.12)">
       <defs>
        <path d="M 32.703125 44.203125 
Q 39.40625 44.203125 44.453125 41.390625 
Q 49.5 38.59375 52.25 33.546875 
Q 55 28.5 55 21.90625 
Q 55 15.296875 52 10.140625 
Q 49 5 43.640625 2.140625 
Q 38.296875 -0.703125 31.296875 -0.703125 
Q 25.09375 -0.703125 19.1875 1.5 
Q 13.296875 3.703125 9.203125 7.5 
Q 7.59375 9 7.59375 10.90625 
Q 7.59375 12.40625 8.390625 13.40625 
Q 9.203125 14.40625 10.296875 14.40625 
Q 11.703125 14.40625 13.09375 13.296875 
Q 17.5 9.703125 21.890625 7.953125 
Q 26.296875 6.203125 31.09375 6.203125 
Q 38.5 6.203125 42.703125 10.390625 
Q 46.90625 14.59375 46.90625 21.796875 
Q 46.90625 28.796875 42.703125 33.09375 
Q 38.5 37.40625 31.40625 37.40625 
Q 22.296875 37.40625 16.59375 30.40625 
Q 15.203125 28.90625 13.203125 28.90625 
Q 11.796875 28.90625 10.84375 29.75 
Q 9.90625 30.59375 9.90625 32.09375 
L 9.90625 66.59375 
Q 9.90625 68.296875 10.953125 69.390625 
Q 12 70.5 13.90625 70.5 
L 49.09375 70.5 
Q 50.90625 70.5 51.953125 69.59375 
Q 53 68.703125 53 67.09375 
Q 53 65.5 51.953125 64.59375 
Q 50.90625 63.703125 49.09375 63.703125 
L 18 63.703125 
L 18 38.59375 
Q 20.796875 41.296875 24.546875 42.75 
Q 28.296875 44.203125 32.703125 44.203125 
z
" id="Nunito-Regular-53"/>
       </defs>
       <use xlink:href="#Nunito-Regular-53"/>
       <use x="59.999985" xlink:href="#Nunito-Regular-48"/>
       <use x="119.999969" xlink:href="#Nunito-Regular-48"/>
      </g>
     </g>
    </g>
    <g id="ytick_4">
     <g id="line2d_27">
      <path clip-path="url(#pb03abaaff3)" d="M 90 256.547143 
L 648 256.547143 
" style="fill:none;stroke:#b0b0b0;stroke-linecap:square;stroke-width:0.8;"/>
     </g>
     <g id="line2d_28">
      <g>
       <use style="stroke:#000000;stroke-width:0.8;" x="90" xlink:href="#mb3663b55d9" y="256.547143"/>
      </g>
     </g>
     <g id="text_15">
      <!-- 600 -->
      <g transform="translate(61.41125 260.807143)scale(0.12 -0.12)">
       <use xlink:href="#Nunito-Regular-54"/>
       <use x="59.899994" xlink:href="#Nunito-Regular-48"/>
       <use x="119.899979" xlink:href="#Nunito-Regular-48"/>
      </g>
     </g>
    </g>
    <g id="ytick_5">
     <g id="line2d_29">
      <path clip-path="url(#pb03abaaff3)" d="M 90 219.072544 
L 648 219.072544 
" style="fill:none;stroke:#b0b0b0;stroke-linecap:square;stroke-width:0.8;"/>
     </g>
     <g id="line2d_30">
      <g>
       <use style="stroke:#000000;stroke-width:0.8;" x="90" xlink:href="#mb3663b55d9" y="219.072544"/>
      </g>
     </g>
     <g id="text_16">
      <!-- 700 -->
      <g transform="translate(61.4 223.332544)scale(0.12 -0.12)">
       <defs>
        <path d="M 50.296875 70.5 
Q 52.09375 70.5 53.046875 69.546875 
Q 54 68.59375 54 67.09375 
Q 54 65.703125 53.09375 64 
L 19.90625 1.5 
Q 18.703125 -0.703125 16.40625 -0.703125 
Q 14.796875 -0.703125 13.546875 0.390625 
Q 12.296875 1.5 12.296875 3.09375 
Q 12.296875 4.203125 13 5.296875 
L 44.203125 63.59375 
L 9.703125 63.59375 
Q 7.90625 63.59375 6.953125 64.5 
Q 6 65.40625 6 67 
Q 6 68.703125 6.953125 69.59375 
Q 7.90625 70.5 9.703125 70.5 
L 50.296875 70.5 
z
" id="Nunito-Regular-55"/>
       </defs>
       <use xlink:href="#Nunito-Regular-55"/>
       <use x="59.999985" xlink:href="#Nunito-Regular-48"/>
       <use x="119.999969" xlink:href="#Nunito-Regular-48"/>
      </g>
     </g>
    </g>
    <g id="ytick_6">
     <g id="line2d_31">
      <path clip-path="url(#pb03abaaff3)" d="M 90 181.597945 
L 648 181.597945 
" style="fill:none;stroke:#b0b0b0;stroke-linecap:square;stroke-width:0.8;"/>
     </g>
     <g id="line2d_32">
      <g>
       <use style="stroke:#000000;stroke-width:0.8;" x="90" xlink:href="#mb3663b55d9" y="181.597945"/>
      </g>
     </g>
     <g id="text_17">
      <!-- 800 -->
      <g transform="translate(61.4 185.857945)scale(0.12 -0.12)">
       <use xlink:href="#Nunito-Regular-56"/>
       <use x="59.999985" xlink:href="#Nunito-Regular-48"/>
       <use x="119.999969" xlink:href="#Nunito-Regular-48"/>
      </g>
     </g>
    </g>
    <g id="ytick_7">
     <g id="line2d_33">
      <path clip-path="url(#pb03abaaff3)" d="M 90 144.123347 
L 648 144.123347 
" style="fill:none;stroke:#b0b0b0;stroke-linecap:square;stroke-width:0.8;"/>
     </g>
     <g id="line2d_34">
      <g>
       <use style="stroke:#000000;stroke-width:0.8;" x="90" xlink:href="#mb3663b55d9" y="144.123347"/>
      </g>
     </g>
     <g id="text_18">
      <!-- 900 -->
      <g transform="translate(61.4 148.383347)scale(0.12 -0.12)">
       <defs>
        <path d="M 27.796875 71.296875 
Q 40.59375 71.296875 47.546875 62.390625 
Q 54.5 53.5 54.5 37 
Q 54.5 25.203125 51.296875 16.703125 
Q 48.09375 8.203125 42 3.703125 
Q 35.90625 -0.796875 27.5 -0.796875 
Q 21.796875 -0.796875 16.140625 1.390625 
Q 10.5 3.59375 6.5 7.40625 
Q 4.796875 9 4.796875 10.796875 
Q 4.796875 12.296875 5.59375 13.296875 
Q 6.40625 14.296875 7.5 14.296875 
Q 8.90625 14.296875 10.40625 13.203125 
Q 19.09375 6.09375 27.296875 6.09375 
Q 36.203125 6.09375 41.203125 14.1875 
Q 46.203125 22.296875 46.203125 36.90625 
L 46.203125 38.203125 
Q 43.90625 32.59375 38.75 29.390625 
Q 33.59375 26.203125 27.09375 26.203125 
Q 20.703125 26.203125 15.703125 29 
Q 10.703125 31.796875 7.890625 36.890625 
Q 5.09375 42 5.09375 48.59375 
Q 5.09375 55.09375 8 60.296875 
Q 10.90625 65.5 16.09375 68.390625 
Q 21.296875 71.296875 27.796875 71.296875 
z
M 28.296875 33.09375 
Q 35.203125 33.09375 39.546875 37.4375 
Q 43.90625 41.796875 43.90625 48.703125 
Q 43.90625 55.703125 39.546875 60.046875 
Q 35.203125 64.40625 28.203125 64.40625 
Q 21.40625 64.40625 17.296875 60.09375 
Q 13.203125 55.796875 13.203125 48.703125 
Q 13.203125 41.59375 17.34375 37.34375 
Q 21.5 33.09375 28.296875 33.09375 
z
" id="Nunito-Regular-57"/>
       </defs>
       <use xlink:href="#Nunito-Regular-57"/>
       <use x="59.999985" xlink:href="#Nunito-Regular-48"/>
       <use x="119.999969" xlink:href="#Nunito-Regular-48"/>
      </g>
     </g>
    </g>
    <g id="ytick_8">
     <g id="line2d_35">
      <path clip-path="url(#pb03abaaff3)" d="M 90 106.648748 
L 648 106.648748 
" style="fill:none;stroke:#b0b0b0;stroke-linecap:square;stroke-width:0.8;"/>
     </g>
     <g id="line2d_36">
      <g>
       <use style="stroke:#000000;stroke-width:0.8;" x="90" xlink:href="#mb3663b55d9" y="106.648748"/>
      </g>
     </g>
     <g id="text_19">
      <!-- 1000 -->
      <g transform="translate(54.2 110.908748)scale(0.12 -0.12)">
       <use xlink:href="#Nunito-Regular-49"/>
       <use x="59.999985" xlink:href="#Nunito-Regular-48"/>
       <use x="119.999969" xlink:href="#Nunito-Regular-48"/>
       <use x="179.999954" xlink:href="#Nunito-Regular-48"/>
      </g>
     </g>
    </g>
    <g id="ytick_9">
     <g id="line2d_37">
      <path clip-path="url(#pb03abaaff3)" d="M 90 69.17415 
L 648 69.17415 
" style="fill:none;stroke:#b0b0b0;stroke-linecap:square;stroke-width:0.8;"/>
     </g>
     <g id="line2d_38">
      <g>
       <use style="stroke:#000000;stroke-width:0.8;" x="90" xlink:href="#mb3663b55d9" y="69.17415"/>
      </g>
     </g>
     <g id="text_20">
      <!-- 1100 -->
      <g transform="translate(54.2 73.43415)scale(0.12 -0.12)">
       <use xlink:href="#Nunito-Regular-49"/>
       <use x="59.999985" xlink:href="#Nunito-Regular-49"/>
       <use x="119.999969" xlink:href="#Nunito-Regular-48"/>
       <use x="179.999954" xlink:href="#Nunito-Regular-48"/>
      </g>
     </g>
    </g>
    <g id="text_21">
     <!-- Sum of Squared Distances -->
     <g transform="translate(47.98 285.804375)rotate(-90)scale(0.12 -0.12)">
      <defs>
       <path d="M 31.203125 -0.796875 
Q 23.703125 -0.796875 16.84375 1.453125 
Q 10 3.703125 5.90625 7.5 
Q 4.40625 8.90625 4.40625 11 
Q 4.40625 12.40625 5.203125 13.453125 
Q 6 14.5 7.09375 14.5 
Q 8.40625 14.5 9.90625 13.40625 
Q 19.203125 6.203125 31.09375 6.203125 
Q 39.703125 6.203125 44.296875 9.5 
Q 48.90625 12.796875 48.90625 18.90625 
Q 48.90625 22.40625 46.703125 24.546875 
Q 44.5 26.703125 40.890625 28 
Q 37.296875 29.296875 31.203125 30.703125 
Q 23 32.59375 17.75 34.6875 
Q 12.5 36.796875 9.25 40.6875 
Q 6 44.59375 6 50.90625 
Q 6 56.90625 9.25 61.546875 
Q 12.5 66.203125 18.34375 68.75 
Q 24.203125 71.296875 31.703125 71.296875 
Q 38.703125 71.296875 44.75 69.140625 
Q 50.796875 67 54.90625 63 
Q 56.5 61.40625 56.5 59.5 
Q 56.5 58.09375 55.703125 57.046875 
Q 54.90625 56 53.796875 56 
Q 52.703125 56 50.90625 57.09375 
Q 46 61.09375 41.796875 62.6875 
Q 37.59375 64.296875 31.703125 64.296875 
Q 23.40625 64.296875 18.796875 60.84375 
Q 14.203125 57.40625 14.203125 51.203125 
Q 14.203125 45.90625 18.25 43.25 
Q 22.296875 40.59375 30.703125 38.59375 
Q 39.796875 36.40625 45 34.546875 
Q 50.203125 32.703125 53.640625 29 
Q 57.09375 25.296875 57.09375 19.09375 
Q 57.09375 13.203125 53.84375 8.703125 
Q 50.59375 4.203125 44.6875 1.703125 
Q 38.796875 -0.796875 31.203125 -0.796875 
z
" id="Nunito-Regular-83"/>
       <path d="M 61.703125 49.90625 
Q 77.90625 49.90625 77.90625 30.59375 
L 77.90625 3.5 
Q 77.90625 1.59375 76.796875 0.546875 
Q 75.703125 -0.5 73.90625 -0.5 
Q 72.09375 -0.5 70.9375 0.546875 
Q 69.796875 1.59375 69.796875 3.5 
L 69.796875 30.40625 
Q 69.796875 37.09375 67.390625 40.09375 
Q 65 43.09375 59.90625 43.09375 
Q 53.796875 43.09375 50.296875 39 
Q 46.796875 34.90625 46.796875 27.90625 
L 46.796875 3.5 
Q 46.796875 1.59375 45.640625 0.546875 
Q 44.5 -0.5 42.703125 -0.5 
Q 40.90625 -0.5 39.796875 0.546875 
Q 38.703125 1.59375 38.703125 3.5 
L 38.703125 30.40625 
Q 38.703125 37.09375 36.296875 40.09375 
Q 33.90625 43.09375 28.703125 43.09375 
Q 22.703125 43.09375 19.140625 39 
Q 15.59375 34.90625 15.59375 27.90625 
L 15.59375 3.5 
Q 15.59375 1.59375 14.5 0.546875 
Q 13.40625 -0.5 11.59375 -0.5 
Q 9.796875 -0.5 8.640625 0.546875 
Q 7.5 1.59375 7.5 3.5 
L 7.5 45.703125 
Q 7.5 47.5 8.640625 48.59375 
Q 9.796875 49.703125 11.59375 49.703125 
Q 13.296875 49.703125 14.390625 48.640625 
Q 15.5 47.59375 15.5 45.796875 
L 15.5 41 
Q 17.703125 45.296875 21.59375 47.59375 
Q 25.5 49.90625 30.59375 49.90625 
Q 42 49.90625 45.5 40.296875 
Q 47.59375 44.703125 51.890625 47.296875 
Q 56.203125 49.90625 61.703125 49.90625 
z
" id="Nunito-Regular-109"/>
       <path id="Nunito-Regular-32"/>
       <path d="M 27.703125 -0.703125 
Q 20.796875 -0.703125 15.546875 2.390625 
Q 10.296875 5.5 7.4375 11.25 
Q 4.59375 17 4.59375 24.59375 
Q 4.59375 32.203125 7.4375 37.953125 
Q 10.296875 43.703125 15.546875 46.796875 
Q 20.796875 49.90625 27.703125 49.90625 
Q 34.59375 49.90625 39.890625 46.796875 
Q 45.203125 43.703125 48.046875 37.953125 
Q 50.90625 32.203125 50.90625 24.59375 
Q 50.90625 17 48.046875 11.25 
Q 45.203125 5.5 39.890625 2.390625 
Q 34.59375 -0.703125 27.703125 -0.703125 
z
M 27.703125 6 
Q 34.90625 6 38.75 10.75 
Q 42.59375 15.5 42.59375 24.59375 
Q 42.59375 33.5 38.6875 38.34375 
Q 34.796875 43.203125 27.703125 43.203125 
Q 20.59375 43.203125 16.6875 38.34375 
Q 12.796875 33.5 12.796875 24.59375 
Q 12.796875 15.59375 16.640625 10.796875 
Q 20.5 6 27.703125 6 
z
" id="Nunito-Regular-111"/>
       <path d="M 29 64.09375 
Q 23.703125 63.703125 21 60.75 
Q 18.296875 57.796875 18.296875 51.90625 
L 18.296875 48.703125 
L 29.40625 48.703125 
Q 31.09375 48.703125 32 47.796875 
Q 32.90625 46.90625 32.90625 45.40625 
Q 32.90625 43.90625 32 43.09375 
Q 31.09375 42.296875 29.40625 42.296875 
L 18.296875 42.296875 
L 18.296875 3.5 
Q 18.296875 1.59375 17.140625 0.546875 
Q 16 -0.5 14.296875 -0.5 
Q 12.5 -0.5 11.34375 0.546875 
Q 10.203125 1.59375 10.203125 3.5 
L 10.203125 42.296875 
L 3.5 42.296875 
Q 1.796875 42.296875 0.84375 43.140625 
Q -0.09375 44 -0.09375 45.40625 
Q -0.09375 46.90625 0.84375 47.796875 
Q 1.796875 48.703125 3.5 48.703125 
L 10.203125 48.703125 
L 10.203125 50.5 
Q 10.203125 59.5 14.703125 64.640625 
Q 19.203125 69.796875 27.59375 70.40625 
L 30.203125 70.59375 
Q 32.796875 70.796875 33.9375 70.09375 
Q 35.09375 69.40625 35.09375 67.59375 
Q 35.09375 64.703125 31.59375 64.296875 
L 29 64.09375 
z
" id="Nunito-Regular-102"/>
       <path d="M 46.59375 49.703125 
Q 48.5 49.703125 49.59375 48.59375 
Q 50.703125 47.5 50.703125 45.703125 
L 50.703125 -14.59375 
Q 50.703125 -16.296875 49.59375 -17.390625 
Q 48.5 -18.5 46.59375 -18.5 
Q 44.703125 -18.5 43.640625 -17.453125 
Q 42.59375 -16.40625 42.59375 -14.59375 
L 42.59375 8.90625 
Q 40.40625 4.296875 36.15625 1.796875 
Q 31.90625 -0.703125 26.203125 -0.703125 
Q 19.703125 -0.703125 14.84375 2.390625 
Q 10 5.5 7.296875 11.140625 
Q 4.59375 16.796875 4.59375 24.40625 
Q 4.59375 32 7.296875 37.75 
Q 10 43.5 14.890625 46.703125 
Q 19.796875 49.90625 26.203125 49.90625 
Q 31.90625 49.90625 36.15625 47.40625 
Q 40.40625 44.90625 42.59375 40.296875 
L 42.59375 45.703125 
Q 42.59375 47.5 43.640625 48.59375 
Q 44.703125 49.703125 46.59375 49.703125 
z
M 27.796875 6 
Q 34.90625 6 38.75 10.84375 
Q 42.59375 15.703125 42.59375 24.59375 
Q 42.59375 33.5 38.75 38.296875 
Q 34.90625 43.09375 27.796875 43.09375 
Q 20.703125 43.09375 16.75 38.140625 
Q 12.796875 33.203125 12.796875 24.40625 
Q 12.796875 15.59375 16.75 10.796875 
Q 20.703125 6 27.796875 6 
z
" id="Nunito-Regular-113"/>
       <path d="M 27.40625 49.90625 
Q 45.703125 49.90625 45.703125 30.703125 
L 45.703125 3.5 
Q 45.703125 1.703125 44.640625 0.59375 
Q 43.59375 -0.5 41.796875 -0.5 
Q 40 -0.5 38.890625 0.59375 
Q 37.796875 1.703125 37.796875 3.5 
L 37.796875 8.296875 
Q 35.90625 4 32 1.640625 
Q 28.09375 -0.703125 23 -0.703125 
Q 18.296875 -0.703125 14.34375 1.1875 
Q 10.40625 3.09375 8.09375 6.5 
Q 5.796875 9.90625 5.796875 14 
Q 5.796875 19.5 8.59375 22.546875 
Q 11.40625 25.59375 17.796875 26.9375 
Q 24.203125 28.296875 35.59375 28.296875 
L 37.796875 28.296875 
L 37.796875 31.59375 
Q 37.796875 37.59375 35.34375 40.390625 
Q 32.90625 43.203125 27.40625 43.203125 
Q 20.59375 43.203125 13.59375 39.5 
Q 10.90625 37.796875 9.796875 37.796875 
Q 8.59375 37.796875 7.796875 38.6875 
Q 7 39.59375 7 41 
Q 7 42.40625 7.84375 43.453125 
Q 8.703125 44.5 10.59375 45.59375 
Q 14.09375 47.59375 18.546875 48.75 
Q 23 49.90625 27.40625 49.90625 
z
M 24.09375 5.703125 
Q 30.09375 5.703125 33.9375 9.75 
Q 37.796875 13.796875 37.796875 20.203125 
L 37.796875 23.09375 
L 36 23.09375 
Q 27.203125 23.09375 22.59375 22.34375 
Q 18 21.59375 16.046875 19.84375 
Q 14.09375 18.09375 14.09375 14.703125 
Q 14.09375 10.796875 16.9375 8.25 
Q 19.796875 5.703125 24.09375 5.703125 
z
" id="Nunito-Regular-97"/>
       <path d="M 46.59375 71 
Q 48.5 71 49.59375 69.890625 
Q 50.703125 68.796875 50.703125 67.09375 
L 50.703125 3.5 
Q 50.703125 1.703125 49.59375 0.59375 
Q 48.5 -0.5 46.59375 -0.5 
Q 44.703125 -0.5 43.640625 0.59375 
Q 42.59375 1.703125 42.59375 3.5 
L 42.59375 8.90625 
Q 40.40625 4.296875 36.15625 1.796875 
Q 31.90625 -0.703125 26.203125 -0.703125 
Q 19.796875 -0.703125 14.890625 2.5 
Q 10 5.703125 7.296875 11.453125 
Q 4.59375 17.203125 4.59375 24.796875 
Q 4.59375 32.296875 7.296875 38 
Q 10 43.703125 14.890625 46.796875 
Q 19.796875 49.90625 26.203125 49.90625 
Q 31.90625 49.90625 36.15625 47.40625 
Q 40.40625 44.90625 42.59375 40.296875 
L 42.59375 67.09375 
Q 42.59375 68.90625 43.640625 69.953125 
Q 44.703125 71 46.59375 71 
z
M 27.796875 6 
Q 34.90625 6 38.75 10.84375 
Q 42.59375 15.703125 42.59375 24.59375 
Q 42.59375 33.5 38.75 38.296875 
Q 34.90625 43.09375 27.796875 43.09375 
Q 20.703125 43.09375 16.75 38.296875 
Q 12.796875 33.5 12.796875 24.796875 
Q 12.796875 15.90625 16.75 10.953125 
Q 20.703125 6 27.796875 6 
z
" id="Nunito-Regular-100"/>
       <path d="M 12.90625 0 
Q 11 0 9.84375 1.09375 
Q 8.703125 2.203125 8.703125 4 
L 8.703125 66.5 
Q 8.703125 68.296875 9.84375 69.390625 
Q 11 70.5 12.90625 70.5 
L 32.40625 70.5 
Q 49.296875 70.5 58.546875 61.34375 
Q 67.796875 52.203125 67.796875 35.296875 
Q 67.796875 18.40625 58.5 9.203125 
Q 49.203125 0 32.40625 0 
L 12.90625 0 
z
M 31.90625 7 
Q 59.296875 7 59.296875 35.296875 
Q 59.296875 63.5 31.90625 63.5 
L 16.90625 63.5 
L 16.90625 7 
z
" id="Nunito-Regular-68"/>
       <path d="M 11.59375 -0.5 
Q 9.796875 -0.5 8.640625 0.546875 
Q 7.5 1.59375 7.5 3.5 
L 7.5 45.703125 
Q 7.5 47.59375 8.640625 48.640625 
Q 9.796875 49.703125 11.59375 49.703125 
Q 13.40625 49.703125 14.5 48.640625 
Q 15.59375 47.59375 15.59375 45.703125 
L 15.59375 3.5 
Q 15.59375 1.5 14.5 0.5 
Q 13.40625 -0.5 11.59375 -0.5 
z
M 11.59375 60.203125 
Q 9.203125 60.203125 7.703125 61.59375 
Q 6.203125 63 6.203125 65.296875 
Q 6.203125 67.5 7.703125 68.890625 
Q 9.203125 70.296875 11.59375 70.296875 
Q 14 70.296875 15.5 68.890625 
Q 17 67.5 17 65.296875 
Q 17 63 15.5 61.59375 
Q 14 60.203125 11.59375 60.203125 
z
" id="Nunito-Regular-105"/>
       <path d="M 32 49.90625 
Q 49.5 49.90625 49.5 30.59375 
L 49.5 3.5 
Q 49.5 1.59375 48.453125 0.546875 
Q 47.40625 -0.5 45.5 -0.5 
Q 43.59375 -0.5 42.5 0.546875 
Q 41.40625 1.59375 41.40625 3.5 
L 41.40625 30.09375 
Q 41.40625 36.90625 38.75 40 
Q 36.09375 43.09375 30.296875 43.09375 
Q 23.59375 43.09375 19.59375 39 
Q 15.59375 34.90625 15.59375 27.90625 
L 15.59375 3.5 
Q 15.59375 1.59375 14.546875 0.546875 
Q 13.5 -0.5 11.59375 -0.5 
Q 9.703125 -0.5 8.59375 0.546875 
Q 7.5 1.59375 7.5 3.5 
L 7.5 45.703125 
Q 7.5 47.5 8.59375 48.59375 
Q 9.703125 49.703125 11.59375 49.703125 
Q 13.40625 49.703125 14.453125 48.59375 
Q 15.5 47.5 15.5 45.796875 
L 15.5 40.703125 
Q 17.90625 45.203125 22.203125 47.546875 
Q 26.5 49.90625 32 49.90625 
z
" id="Nunito-Regular-110"/>
       <path d="M 27.59375 -0.703125 
Q 20.796875 -0.703125 15.546875 2.390625 
Q 10.296875 5.5 7.4375 11.203125 
Q 4.59375 16.90625 4.59375 24.40625 
Q 4.59375 31.90625 7.546875 37.703125 
Q 10.5 43.5 15.796875 46.703125 
Q 21.09375 49.90625 28 49.90625 
Q 31.796875 49.90625 35.546875 48.84375 
Q 39.296875 47.796875 42.09375 45.796875 
Q 43.90625 44.59375 44.65625 43.4375 
Q 45.40625 42.296875 45.40625 40.90625 
Q 45.40625 39.5 44.65625 38.59375 
Q 43.90625 37.703125 42.703125 37.703125 
Q 42 37.703125 41.203125 38.09375 
Q 40.40625 38.5 39.84375 38.890625 
Q 39.296875 39.296875 39.09375 39.40625 
Q 36.5 41.09375 34.140625 42.09375 
Q 31.796875 43.09375 28.40625 43.09375 
Q 21.09375 43.09375 17.046875 38.140625 
Q 13 33.203125 13 24.40625 
Q 13 15.59375 17.046875 10.796875 
Q 21.09375 6 28.40625 6 
Q 31.796875 6 34.25 7 
Q 36.703125 8 39.203125 9.703125 
Q 40.296875 10.40625 41.296875 10.90625 
Q 42.296875 11.40625 43 11.40625 
Q 44.09375 11.40625 44.84375 10.5 
Q 45.59375 9.59375 45.59375 8.203125 
Q 45.59375 6.90625 44.890625 5.84375 
Q 44.203125 4.796875 42.296875 3.5 
Q 39.5 1.59375 35.546875 0.4375 
Q 31.59375 -0.703125 27.59375 -0.703125 
z
" id="Nunito-Regular-99"/>
      </defs>
      <use xlink:href="#Nunito-Regular-83"/>
      <use x="61.699997" xlink:href="#Nunito-Regular-117"/>
      <use x="117.799988" xlink:href="#Nunito-Regular-109"/>
      <use x="202.999969" xlink:href="#Nunito-Regular-32"/>
      <use x="228.799957" xlink:href="#Nunito-Regular-111"/>
      <use x="284.299942" xlink:href="#Nunito-Regular-102"/>
      <use x="317.09993" xlink:href="#Nunito-Regular-32"/>
      <use x="342.899918" xlink:href="#Nunito-Regular-83"/>
      <use x="404.599915" xlink:href="#Nunito-Regular-113"/>
      <use x="462.799911" xlink:href="#Nunito-Regular-117"/>
      <use x="518.899902" xlink:href="#Nunito-Regular-97"/>
      <use x="571.899887" xlink:href="#Nunito-Regular-114"/>
      <use x="607.199875" xlink:href="#Nunito-Regular-101"/>
      <use x="659.899872" xlink:href="#Nunito-Regular-100"/>
      <use x="718.099869" xlink:href="#Nunito-Regular-32"/>
      <use x="743.899857" xlink:href="#Nunito-Regular-68"/>
      <use x="817.79985" xlink:href="#Nunito-Regular-105"/>
      <use x="840.999847" xlink:href="#Nunito-Regular-115"/>
      <use x="888.999832" xlink:href="#Nunito-Regular-116"/>
      <use x="922.999817" xlink:href="#Nunito-Regular-97"/>
      <use x="975.999802" xlink:href="#Nunito-Regular-110"/>
      <use x="1032.799789" xlink:href="#Nunito-Regular-99"/>
      <use x="1080.699783" xlink:href="#Nunito-Regular-101"/>
      <use x="1133.39978" xlink:href="#Nunito-Regular-115"/>
     </g>
    </g>
   </g>
   <g id="line2d_39">
    <path clip-path="url(#pb03abaaff3)" d="M 118.040201 66.665455 
L 146.080402 187.014555 
L 174.120603 242.22093 
L 202.160804 264.238701 
L 230.201005 284.102813 
L 258.241206 298.928834 
L 286.281407 311.786631 
L 314.321608 319.841248 
L 342.361809 326.6886 
L 370.40201 332.465602 
L 398.442211 337.77663 
L 426.482412 342.82664 
L 454.522613 346.548361 
L 482.562814 350.155183 
L 510.603015 353.175697 
L 538.643216 356.11956 
L 566.683417 358.565501 
L 594.723618 360.86812 
L 622.763819 363.174545 
" style="fill:none;stroke:#636efa;stroke-linecap:square;stroke-width:1.5;"/>
    <defs>
     <path d="M 0 3 
C 0.795609 3 1.55874 2.683901 2.12132 2.12132 
C 2.683901 1.55874 3 0.795609 3 0 
C 3 -0.795609 2.683901 -1.55874 2.12132 -2.12132 
C 1.55874 -2.683901 0.795609 -3 0 -3 
C -0.795609 -3 -1.55874 -2.683901 -2.12132 -2.12132 
C -2.683901 -1.55874 -3 -0.795609 -3 0 
C -3 0.795609 -2.683901 1.55874 -2.12132 2.12132 
C -1.55874 2.683901 -0.795609 3 0 3 
z
" id="mf281f3e906" style="stroke:#636efa;"/>
    </defs>
    <g clip-path="url(#pb03abaaff3)">
     <use style="fill:#636efa;stroke:#636efa;" x="118.040201" xlink:href="#mf281f3e906" y="66.665455"/>
     <use style="fill:#636efa;stroke:#636efa;" x="146.080402" xlink:href="#mf281f3e906" y="187.014555"/>
     <use style="fill:#636efa;stroke:#636efa;" x="174.120603" xlink:href="#mf281f3e906" y="242.22093"/>
     <use style="fill:#636efa;stroke:#636efa;" x="202.160804" xlink:href="#mf281f3e906" y="264.238701"/>
     <use style="fill:#636efa;stroke:#636efa;" x="230.201005" xlink:href="#mf281f3e906" y="284.102813"/>
     <use style="fill:#636efa;stroke:#636efa;" x="258.241206" xlink:href="#mf281f3e906" y="298.928834"/>
     <use style="fill:#636efa;stroke:#636efa;" x="286.281407" xlink:href="#mf281f3e906" y="311.786631"/>
     <use style="fill:#636efa;stroke:#636efa;" x="314.321608" xlink:href="#mf281f3e906" y="319.841248"/>
     <use style="fill:#636efa;stroke:#636efa;" x="342.361809" xlink:href="#mf281f3e906" y="326.6886"/>
     <use style="fill:#636efa;stroke:#636efa;" x="370.40201" xlink:href="#mf281f3e906" y="332.465602"/>
     <use style="fill:#636efa;stroke:#636efa;" x="398.442211" xlink:href="#mf281f3e906" y="337.77663"/>
     <use style="fill:#636efa;stroke:#636efa;" x="426.482412" xlink:href="#mf281f3e906" y="342.82664"/>
     <use style="fill:#636efa;stroke:#636efa;" x="454.522613" xlink:href="#mf281f3e906" y="346.548361"/>
     <use style="fill:#636efa;stroke:#636efa;" x="482.562814" xlink:href="#mf281f3e906" y="350.155183"/>
     <use style="fill:#636efa;stroke:#636efa;" x="510.603015" xlink:href="#mf281f3e906" y="353.175697"/>
     <use style="fill:#636efa;stroke:#636efa;" x="538.643216" xlink:href="#mf281f3e906" y="356.11956"/>
     <use style="fill:#636efa;stroke:#636efa;" x="566.683417" xlink:href="#mf281f3e906" y="358.565501"/>
     <use style="fill:#636efa;stroke:#636efa;" x="594.723618" xlink:href="#mf281f3e906" y="360.86812"/>
     <use style="fill:#636efa;stroke:#636efa;" x="622.763819" xlink:href="#mf281f3e906" y="363.174545"/>
    </g>
   </g>
   <g id="patch_3">
    <path d="M 90 378 
L 90 51.84 
" style="fill:none;stroke:#000000;stroke-linecap:square;stroke-linejoin:miter;stroke-width:0.8;"/>
   </g>
   <g id="patch_4">
    <path d="M 648 378 
L 648 51.84 
" style="fill:none;stroke:#000000;stroke-linecap:square;stroke-linejoin:miter;stroke-width:0.8;"/>
   </g>
   <g id="patch_5">
    <path d="M 90 378 
L 648 378 
" style="fill:none;stroke:#000000;stroke-linecap:square;stroke-linejoin:miter;stroke-width:0.8;"/>
   </g>
   <g id="patch_6">
    <path d="M 90 51.84 
L 648 51.84 
" style="fill:none;stroke:#000000;stroke-linecap:square;stroke-linejoin:miter;stroke-width:0.8;"/>
   </g>
   <g id="text_22">
    <!-- Elbow plot for Kmeans cluster range -->
    <g transform="translate(252.727875 45.84)scale(0.144 -0.144)">
     <defs>
      <path d="M 12.90625 0 
Q 11 0 9.84375 1.09375 
Q 8.703125 2.203125 8.703125 4 
L 8.703125 66.5 
Q 8.703125 68.296875 9.84375 69.390625 
Q 11 70.5 12.90625 70.5 
L 50.296875 70.5 
Q 52.09375 70.5 53.09375 69.59375 
Q 54.09375 68.703125 54.09375 67.09375 
Q 54.09375 65.5 53.09375 64.59375 
Q 52.09375 63.703125 50.296875 63.703125 
L 16.796875 63.703125 
L 16.796875 39.203125 
L 48.296875 39.203125 
Q 50.09375 39.203125 51.09375 38.296875 
Q 52.09375 37.40625 52.09375 35.796875 
Q 52.09375 34.203125 51.09375 33.296875 
Q 50.09375 32.40625 48.296875 32.40625 
L 16.796875 32.40625 
L 16.796875 6.796875 
L 50.296875 6.796875 
Q 52.09375 6.796875 53.09375 5.9375 
Q 54.09375 5.09375 54.09375 3.40625 
Q 54.09375 1.796875 53.09375 0.890625 
Q 52.09375 0 50.296875 0 
L 12.90625 0 
z
" id="Nunito-Regular-69"/>
      <path d="M 32 49.90625 
Q 38.40625 49.90625 43.296875 46.796875 
Q 48.203125 43.703125 50.890625 38 
Q 53.59375 32.296875 53.59375 24.796875 
Q 53.59375 17.203125 50.890625 11.453125 
Q 48.203125 5.703125 43.296875 2.5 
Q 38.40625 -0.703125 32 -0.703125 
Q 26.296875 -0.703125 22.046875 1.796875 
Q 17.796875 4.296875 15.59375 8.90625 
L 15.59375 3.5 
Q 15.59375 1.703125 14.546875 0.59375 
Q 13.5 -0.5 11.59375 -0.5 
Q 9.703125 -0.5 8.59375 0.59375 
Q 7.5 1.703125 7.5 3.5 
L 7.5 67.09375 
Q 7.5 68.796875 8.59375 69.890625 
Q 9.703125 71 11.59375 71 
Q 13.5 71 14.546875 69.953125 
Q 15.59375 68.90625 15.59375 67.09375 
L 15.59375 40.296875 
Q 17.796875 44.90625 22.046875 47.40625 
Q 26.296875 49.90625 32 49.90625 
z
M 30.40625 6 
Q 37.5 6 41.390625 10.953125 
Q 45.296875 15.90625 45.296875 24.796875 
Q 45.296875 33.5 41.390625 38.296875 
Q 37.5 43.09375 30.40625 43.09375 
Q 23.296875 43.09375 19.4375 38.296875 
Q 15.59375 33.5 15.59375 24.59375 
Q 15.59375 15.703125 19.4375 10.84375 
Q 23.296875 6 30.40625 6 
z
" id="Nunito-Regular-98"/>
      <path d="M 74.09375 47.09375 
Q 75.09375 49.5 77.40625 49.5 
Q 78.90625 49.5 80.09375 48.5 
Q 81.296875 47.5 81.296875 46 
Q 81.296875 45.296875 81 44.5 
L 64.40625 2.5 
Q 63.796875 1.203125 62.640625 0.453125 
Q 61.5 -0.296875 60.09375 -0.296875 
Q 58.796875 -0.296875 57.640625 0.453125 
Q 56.5 1.203125 55.90625 2.5 
L 42.09375 37.59375 
L 28.40625 2.5 
Q 27.90625 1.203125 26.703125 0.453125 
Q 25.5 -0.296875 24.09375 -0.296875 
Q 22.796875 -0.296875 21.59375 0.453125 
Q 20.40625 1.203125 19.796875 2.5 
L 3.203125 44.40625 
Q 2.90625 45.203125 2.90625 45.796875 
Q 2.90625 47.40625 4.25 48.5 
Q 5.59375 49.59375 7.203125 49.59375 
Q 9.59375 49.59375 10.59375 47.203125 
L 24.296875 10.296875 
L 38.40625 46.90625 
Q 39 48.203125 40.046875 48.890625 
Q 41.09375 49.59375 42.296875 49.59375 
Q 43.59375 49.59375 44.640625 48.890625 
Q 45.703125 48.203125 46.203125 46.90625 
L 60.296875 10.40625 
L 74.09375 47.09375 
z
" id="Nunito-Regular-119"/>
      <path d="M 32 49.90625 
Q 38.40625 49.90625 43.296875 46.703125 
Q 48.203125 43.5 50.890625 37.75 
Q 53.59375 32 53.59375 24.40625 
Q 53.59375 16.796875 50.890625 11.140625 
Q 48.203125 5.5 43.34375 2.390625 
Q 38.5 -0.703125 32 -0.703125 
Q 26.296875 -0.703125 22.046875 1.796875 
Q 17.796875 4.296875 15.59375 8.90625 
L 15.59375 -14.59375 
Q 15.59375 -16.40625 14.546875 -17.453125 
Q 13.5 -18.5 11.59375 -18.5 
Q 9.703125 -18.5 8.59375 -17.390625 
Q 7.5 -16.296875 7.5 -14.59375 
L 7.5 45.703125 
Q 7.5 47.5 8.59375 48.59375 
Q 9.703125 49.703125 11.59375 49.703125 
Q 13.5 49.703125 14.546875 48.59375 
Q 15.59375 47.5 15.59375 45.703125 
L 15.59375 40.296875 
Q 17.796875 44.90625 22.046875 47.40625 
Q 26.296875 49.90625 32 49.90625 
z
M 30.40625 6 
Q 37.5 6 41.390625 10.796875 
Q 45.296875 15.59375 45.296875 24.40625 
Q 45.296875 33.203125 41.390625 38.140625 
Q 37.5 43.09375 30.40625 43.09375 
Q 23.296875 43.09375 19.4375 38.296875 
Q 15.59375 33.5 15.59375 24.59375 
Q 15.59375 15.703125 19.4375 10.84375 
Q 23.296875 6 30.40625 6 
z
" id="Nunito-Regular-112"/>
      <path d="M 59.40625 6.203125 
Q 60.796875 4.90625 60.796875 3.296875 
Q 60.796875 1.90625 59.640625 0.75 
Q 58.5 -0.40625 57 -0.40625 
Q 55.703125 -0.40625 54.296875 0.796875 
L 16.90625 33.5 
L 16.90625 3.703125 
Q 16.90625 1.796875 15.796875 0.640625 
Q 14.703125 -0.5 12.796875 -0.5 
Q 10.90625 -0.5 9.796875 0.640625 
Q 8.703125 1.796875 8.703125 3.703125 
L 8.703125 66.796875 
Q 8.703125 68.703125 9.796875 69.84375 
Q 10.90625 71 12.796875 71 
Q 14.703125 71 15.796875 69.84375 
Q 16.90625 68.703125 16.90625 66.796875 
L 16.90625 38.09375 
L 52.59375 69.796875 
Q 53.703125 70.90625 55.203125 70.90625 
Q 56.703125 70.90625 57.796875 69.75 
Q 58.90625 68.59375 58.90625 67.203125 
Q 58.90625 65.703125 57.59375 64.40625 
L 25.296875 36 
L 59.40625 6.203125 
z
" id="Nunito-Regular-75"/>
      <path d="M 47 49.703125 
Q 48.90625 49.703125 50 48.59375 
Q 51.09375 47.5 51.09375 45.703125 
L 51.09375 3.296875 
Q 51.09375 -7.59375 45.5 -13.140625 
Q 39.90625 -18.703125 28.90625 -18.703125 
Q 18.203125 -18.703125 11.09375 -14.5 
Q 7.5 -12.5 7.5 -9.90625 
Q 7.5 -8.5 8.25 -7.59375 
Q 9 -6.703125 10.203125 -6.703125 
Q 11.203125 -6.703125 13.796875 -8.09375 
Q 17.296875 -9.90625 20.6875 -11 
Q 24.09375 -12.09375 28.796875 -12.09375 
Q 35.90625 -12.09375 39.5 -8.34375 
Q 43.09375 -4.59375 43.09375 2.59375 
L 43.09375 11.203125 
Q 41 6.5 36.640625 4 
Q 32.296875 1.5 26.40625 1.5 
Q 20 1.5 15.046875 4.5 
Q 10.09375 7.5 7.34375 13 
Q 4.59375 18.5 4.59375 25.703125 
Q 4.59375 32.90625 7.34375 38.40625 
Q 10.09375 43.90625 15.046875 46.90625 
Q 20 49.90625 26.40625 49.90625 
Q 32.203125 49.90625 36.5 47.40625 
Q 40.796875 44.90625 43 40.296875 
L 43 45.703125 
Q 43 47.5 44.046875 48.59375 
Q 45.09375 49.703125 47 49.703125 
z
M 28 8.203125 
Q 35 8.203125 39 12.84375 
Q 43 17.5 43 25.703125 
Q 43 33.796875 39.046875 38.4375 
Q 35.09375 43.09375 28 43.09375 
Q 20.90625 43.09375 16.84375 38.4375 
Q 12.796875 33.796875 12.796875 25.703125 
Q 12.796875 17.5 16.84375 12.84375 
Q 20.90625 8.203125 28 8.203125 
z
" id="Nunito-Regular-103"/>
     </defs>
     <use xlink:href="#Nunito-Regular-69"/>
     <use x="58.199997" xlink:href="#Nunito-Regular-108"/>
     <use x="81.399994" xlink:href="#Nunito-Regular-98"/>
     <use x="139.599991" xlink:href="#Nunito-Regular-111"/>
     <use x="195.099976" xlink:href="#Nunito-Regular-119"/>
     <use x="279.299957" xlink:href="#Nunito-Regular-32"/>
     <use x="305.099945" xlink:href="#Nunito-Regular-112"/>
     <use x="363.299942" xlink:href="#Nunito-Regular-108"/>
     <use x="386.499939" xlink:href="#Nunito-Regular-111"/>
     <use x="441.999924" xlink:href="#Nunito-Regular-116"/>
     <use x="475.999908" xlink:href="#Nunito-Regular-32"/>
     <use x="501.799896" xlink:href="#Nunito-Regular-102"/>
     <use x="534.599884" xlink:href="#Nunito-Regular-111"/>
     <use x="590.099869" xlink:href="#Nunito-Regular-114"/>
     <use x="625.399857" xlink:href="#Nunito-Regular-32"/>
     <use x="651.199844" xlink:href="#Nunito-Regular-75"/>
     <use x="713.999832" xlink:href="#Nunito-Regular-109"/>
     <use x="799.199814" xlink:href="#Nunito-Regular-101"/>
     <use x="851.899811" xlink:href="#Nunito-Regular-97"/>
     <use x="904.899796" xlink:href="#Nunito-Regular-110"/>
     <use x="961.699783" xlink:href="#Nunito-Regular-115"/>
     <use x="1009.699768" xlink:href="#Nunito-Regular-32"/>
     <use x="1035.499756" xlink:href="#Nunito-Regular-99"/>
     <use x="1083.39975" xlink:href="#Nunito-Regular-108"/>
     <use x="1106.599747" xlink:href="#Nunito-Regular-117"/>
     <use x="1162.699738" xlink:href="#Nunito-Regular-115"/>
     <use x="1210.699722" xlink:href="#Nunito-Regular-116"/>
     <use x="1244.699707" xlink:href="#Nunito-Regular-101"/>
     <use x="1297.399704" xlink:href="#Nunito-Regular-114"/>
     <use x="1332.699692" xlink:href="#Nunito-Regular-32"/>
     <use x="1358.49968" xlink:href="#Nunito-Regular-114"/>
     <use x="1393.799667" xlink:href="#Nunito-Regular-97"/>
     <use x="1446.799652" xlink:href="#Nunito-Regular-110"/>
     <use x="1503.59964" xlink:href="#Nunito-Regular-103"/>
     <use x="1562.199631" xlink:href="#Nunito-Regular-101"/>
    </g>
   </g>
  </g>
 </g>
 <defs>
  <clipPath id="pb03abaaff3">
   <rect height="326.16" width="558" x="90" y="51.84"/>
  </clipPath>
 </defs>
</svg>
